<?xml version="1.0" encoding="UTF-8"?>
<svg id="Layer_1" data-name="Layer 1" xmlns="http://www.w3.org/2000/svg" viewBox="0 0 37.96 41.01">
  <defs>
    <style>
      .cls-1 {
        fill: #fff;
      }

      .cls-2 {
        fill: #feda15;
      }

      .cls-3 {
        fill: #e6c220;
      }
    </style>
  </defs>
  <path class="cls-3" d="M18.66,2.33c.2-.11,.44-.11,.64,0l14.2,7.81c.46,.25,.46,.91,0,1.16l-14.2,7.81c-.2,.11-.44,.11-.64,0L4.46,11.3c-.46-.25-.46-.91,0-1.16L18.66,2.33Z"/>
  <path class="cls-1" d="M34.77,13.13c.44-.24,.98,.08,.98,.58v15.61c0,.24-.13,.47-.34,.58l-14.34,7.88c-.44,.24-.98-.08-.98-.58v-15.61c0-.24,.13-.47,.34-.58l14.34-7.88Z"/>
  <path class="cls-2" d="M17.53,21.01L3.2,13.13c-.44-.24-.98,.08-.98,.58v15.61c0,.24,.13,.47,.34,.58l14.34,7.88c.44,.24,.98-.08,.98-.58v-15.61c0-.24-.13-.47-.34-.58Zm-9.3,4.97l-3.36-1.77s0-.01,0-.02c.08-1.05,.89-1.5,1.82-1.01,.93,.49,1.62,1.73,1.54,2.78,0,0,0,.01,0,.02Zm5.29,3.05l-3.36-1.77s0-.01,0-.02c.08-1.05,.89-1.5,1.82-1.01,.93,.49,1.62,1.73,1.54,2.78,0,0,0,.01,0,.02Z"/>
</svg>